<?xml version="1.0"?>
<svg xmlns:rdf="http://www.w3.org/1999/02/22-rdf-syntax-ns#" xmlns="http://www.w3.org/2000/svg" xmlns:cc="http://web.resource.org/cc/" xmlns:xlink="http://www.w3.org/1999/xlink" xmlns:dc="http://purl.org/dc/elements/1.1/" xml:space="preserve" viewBox="-0.952 -0.049 513 454">
		<path d="m41.256 453.66c-22.752 0-41.256-18.5-41.256-41.32 0-7.2 1.872-14.328 5.544-20.592l214.28-371.1c15.984-27.576 55.584-27.504 71.424 0l214.27 371.09c3.6 6.336 5.544 13.392 5.544 20.592 0 22.824-18.432 41.256-41.184 41.328h-428.61z" fill="#ED171F"/>
		<polygon points="52.2 406 458.71 406 255.46 53.919" fill="#FEB82F"/>
		<path d="m213.7 393.33h-50.76v-127.51c0-20.736 22.536-33.696 40.464-23.328l57.24 33.048v-82.08l25.416-25.416 25.416 25.416v123.34c0 14.904-12.096 27-27 27-4.68 0-9.36-1.296-13.464-3.672l-57.312-33.048v86.25z"/>
<metadata><rdf:RDF><cc:Work><dc:format>image/svg+xml</dc:format><dc:type rdf:resource="http://purl.org/dc/dcmitype/StillImage"/><cc:license rdf:resource="http://creativecommons.org/licenses/publicdomain/"/><dc:publisher><cc:Agent rdf:about="http://openclipart.org/"><dc:title>Openclipart</dc:title></cc:Agent></dc:publisher></cc:Work><cc:License rdf:about="http://creativecommons.org/licenses/publicdomain/"><cc:permits rdf:resource="http://creativecommons.org/ns#Reproduction"/><cc:permits rdf:resource="http://creativecommons.org/ns#Distribution"/><cc:permits rdf:resource="http://creativecommons.org/ns#DerivativeWorks"/></cc:License></rdf:RDF></metadata></svg>
